<svg width="64" height="64" viewBox="0 0 64 64" fill="none" xmlns="http://www.w3.org/2000/svg">
<rect width="64" height="64" fill="#0046CE"/>
<path d="M29.7984 52.8731C28.4046 52.8731 26.752 52.8133 24.8405 52.6939C22.9291 52.5744 21.1172 52.3952 19.4048 52.1563L16 13.688C17.2345 13.2898 18.7876 12.8916 20.6592 12.4933C22.5707 12.0951 24.6016 11.7566 26.752 11.4779C28.9024 11.1593 30.9532 11 32.9045 11C35.0151 11 37.1058 11.219 39.1765 11.6571C41.2871 12.0951 43.1787 12.8318 44.8512 13.8672C45.2096 14.9424 45.4684 15.9778 45.6277 16.9733C45.787 17.9291 45.8667 18.845 45.8667 19.7211C45.8667 21.9511 45.3689 23.9223 44.3733 25.6347C43.4176 27.3072 42.1234 28.7607 40.4907 29.9952C42.8402 31.827 44.6322 33.858 45.8667 36.088C47.141 38.318 47.7781 40.349 47.7781 42.1808C47.7781 44.0923 47.1808 45.8644 45.9861 47.4971C44.8313 49.09 42.9397 50.3842 40.3115 51.3797C37.6832 52.3753 34.1788 52.8731 29.7984 52.8731ZM27.4688 31.9664C30.2564 30.8514 32.4068 29.3381 33.92 27.4267C35.4332 25.5152 36.1899 23.6436 36.1899 21.8117C36.1899 20.6171 35.9111 19.3428 35.3536 17.9888C34.8359 16.6348 34.0594 15.5995 33.024 14.8827C32.5063 14.8827 31.909 14.9623 31.232 15.1216C30.5948 15.2411 29.9179 15.4004 29.2011 15.5995L27.4688 31.9664ZM31.5904 48.632C31.909 48.632 32.3669 48.632 32.9643 48.632C33.5616 48.5922 34.1589 48.5524 34.7563 48.5125C35.3536 48.4329 35.7717 48.3532 36.0107 48.2736C36.4885 47.3179 36.9465 46.0834 37.3845 44.5701C37.8624 43.0171 38.1013 41.3644 38.1013 39.6123C38.1013 38.3778 37.942 37.1632 37.6235 35.9685C37.3447 34.7739 36.8469 33.619 36.1301 32.504C34.7762 33.1412 33.3227 33.6987 31.7696 34.1765C30.2564 34.6146 28.7033 35.0128 27.1104 35.3712L25.7963 47.736C26.7918 48.0148 27.7675 48.2338 28.7232 48.3931C29.7188 48.5524 30.6745 48.632 31.5904 48.632Z" fill="white"/>
<rect x="5.5" y="6.5" width="52" height="52" rx="1.5" stroke="white"/>
</svg>
